<svg xmlns="http://www.w3.org/2000/svg" viewBox="0 0 500 500"><g id="freepik--City--inject-2"><polygon id="freepik--city--inject-2" points="484.2 194.85 484.2 472.4 276.93 472.4 276.93 242.53 295.06 232.06 313.19 242.53 313.19 228.86 331.32 218.39 331.32 193.63 343.41 186.65 367.6 200.61 367.6 267.25 379.69 260.27 397.82 270.74 397.82 242.82 415.95 232.35 434.08 242.82 434.08 274.4 446.17 281.38 446.17 195.99 466.06 184.39 484.2 194.85" style="fill:#f0f0f0"></polygon></g><g id="freepik--Wall--inject-2"><g id="freepik--wall--inject-2"><rect x="13.2" y="15.81" width="263.59" height="457.05" style="fill:#fff"></rect><g id="freepik--Bricks--inject-2"><path d="M160.32,91.6v6.51c0,2,1.44,2.88,3.21,1.85l29.78-17.19a7.11,7.11,0,0,0,3.22-5.57V70.69c0-2-1.44-2.88-3.22-1.86L163.53,86A7.11,7.11,0,0,0,160.32,91.6Z" style="fill:#f0f0f0"></path><path d="M126.12,47.44V54c0,2,1.44,2.88,3.21,1.85l29.78-17.19A7.11,7.11,0,0,0,162.33,33V26.53c0-2.05-1.44-2.88-3.22-1.86l-29.78,17.2A7.11,7.11,0,0,0,126.12,47.44Z" style="fill:#f0f0f0"></path><path d="M195.25,457.84v6.51c0,2,1.44,2.88,3.22,1.86L228.25,449a7.09,7.09,0,0,0,3.22-5.57v-6.51c0-2.05-1.44-2.88-3.22-1.86l-29.78,17.2A7.09,7.09,0,0,0,195.25,457.84Z" style="fill:#f0f0f0"></path><path d="M276.85,406.75l-26.22,15.14a7.11,7.11,0,0,0-3.22,5.57V434c0,2,1.44,2.89,3.22,1.86l26.22-15.14Z" style="fill:#f0f0f0"></path><path d="M270.57,441.39l6.28-3.63V423.82l-6.28,3.63a7.09,7.09,0,0,0-3.22,5.57v6.51C267.35,441.58,268.79,442.41,270.57,441.39Z" style="fill:#f0f0f0"></path><path d="M261.6,109.87l-29.78,17.19a7.17,7.17,0,0,0-3.22,5.58v6.51c0,2,1.45,2.88,3.22,1.85l29.78-17.19a7.11,7.11,0,0,0,3.22-5.57v-6.51C264.82,109.68,263.38,108.84,261.6,109.87Z" style="fill:#f0f0f0"></path><path d="M67.87,290,38.09,307.2a7.11,7.11,0,0,0-3.21,5.57v6.51c0,2.05,1.44,2.88,3.21,1.86l29.78-17.2a7.09,7.09,0,0,0,3.22-5.57v-6.51C71.09,289.81,69.65,289,67.87,290Z" style="fill:#f0f0f0"></path><path d="M151.11,211.54v6.51c0,2,1.44,2.88,3.22,1.85l29.78-17.19a7.11,7.11,0,0,0,3.22-5.57v-6.51c0-2-1.44-2.89-3.22-1.86L154.33,206A7.11,7.11,0,0,0,151.11,211.54Z" style="fill:#f0f0f0"></path><path d="M276.85,186.74l-26.22,15.14a7.12,7.12,0,0,0-3.22,5.57V214c0,2,1.44,2.88,3.22,1.85l26.22-15.13Z" style="fill:#f0f0f0"></path><path d="M112.37,184.58v6.51c0,2,1.44,2.88,3.22,1.85l29.78-17.19a7.13,7.13,0,0,0,3.21-5.57v-6.51c0-2-1.44-2.88-3.21-1.86L115.59,179A7.09,7.09,0,0,0,112.37,184.58Z" style="fill:#f0f0f0"></path><path d="M234.59,66.6,204.81,83.8a7.09,7.09,0,0,0-3.22,5.57v6.51c0,2.05,1.44,2.88,3.22,1.85l29.78-17.19A7.11,7.11,0,0,0,237.8,75V68.46C237.8,66.41,236.36,65.58,234.59,66.6Z" style="fill:#f0f0f0"></path><path d="M29.83,210.65,13.2,220.26v13.93l16.63-9.6A7.09,7.09,0,0,0,33.05,219v-6.51C33.05,210.46,31.61,209.63,29.83,210.65Z" style="fill:#f0f0f0"></path><path d="M154.33,288.37l29.78-17.19a7.11,7.11,0,0,0,3.22-5.57V259.1c0-2.06-1.44-2.89-3.22-1.86l-29.78,17.19a7.11,7.11,0,0,0-3.22,5.57v6.51C151.11,288.57,152.55,289.4,154.33,288.37Z" style="fill:#f0f0f0"></path><path d="M247.41,274.52V281c0,2.05,1.44,2.88,3.22,1.86l26.22-15.14V253.81L250.63,269A7.14,7.14,0,0,0,247.41,274.52Z" style="fill:#f0f0f0"></path><path d="M131.16,439.86l29.78-17.2a7.09,7.09,0,0,0,3.22-5.57v-6.51c0-2.05-1.44-2.88-3.22-1.86l-29.78,17.2a7.09,7.09,0,0,0-3.22,5.57V438C127.94,440.05,129.38,440.88,131.16,439.86Z" style="fill:#f0f0f0"></path><path d="M34.88,73.13v6.51c0,2,1.44,2.88,3.21,1.85L67.87,64.3a7.09,7.09,0,0,0,3.22-5.57V52.22c0-2-1.44-2.88-3.22-1.86L38.09,67.56A7.11,7.11,0,0,0,34.88,73.13Z" style="fill:#f0f0f0"></path><path d="M276.85,304.56,250.63,319.7a7.09,7.09,0,0,0-3.22,5.57v6.51c0,2.05,1.44,2.88,3.22,1.86l26.22-15.14Z" style="fill:#f0f0f0"></path><path d="M73.62,100.56v6.51c0,2.05,1.44,2.88,3.22,1.86l29.78-17.2a7.09,7.09,0,0,0,3.22-5.57V79.65c0-2.05-1.44-2.88-3.22-1.86L76.84,95A7.09,7.09,0,0,0,73.62,100.56Z" style="fill:#f0f0f0"></path><path d="M47.94,79,18.16,96.23a7.11,7.11,0,0,0-3.22,5.57v6.51c0,2.06,1.44,2.89,3.22,1.86L47.94,93a7.11,7.11,0,0,0,3.22-5.58V80.9C51.16,78.84,49.72,78,47.94,79Z" style="fill:#f0f0f0"></path><path d="M38.09,471.09,67.87,453.9a7.11,7.11,0,0,0,3.22-5.58v-6.51c0-2.05-1.44-2.88-3.22-1.85L38.09,457.15a7.13,7.13,0,0,0-3.21,5.57v6.51C34.88,471.28,36.32,472.12,38.09,471.09Z" style="fill:#f0f0f0"></path><path d="M89.9,420.91V414.4c0-2-1.44-2.89-3.22-1.86L56.9,429.73a7.13,7.13,0,0,0-3.21,5.58v6.5c0,2.06,1.44,2.89,3.21,1.86l29.78-17.19A7.11,7.11,0,0,0,89.9,420.91Z" style="fill:#f0f0f0"></path><path d="M47.94,181.74,18.16,198.93a7.13,7.13,0,0,0-3.22,5.58V211c0,2,1.44,2.88,3.22,1.85l29.78-17.19a7.11,7.11,0,0,0,3.22-5.57V183.6C51.16,181.55,49.72,180.72,47.94,181.74Z" style="fill:#f0f0f0"></path><path d="M47.94,253,18.16,270.2a7.09,7.09,0,0,0-3.22,5.57v6.51c0,2.05,1.44,2.88,3.22,1.86l29.78-17.2a7.09,7.09,0,0,0,3.22-5.57v-6.51C51.16,252.81,49.72,252,47.94,253Z" style="fill:#f0f0f0"></path><path d="M29.83,359.72l-16.63,9.6v13.94l16.63-9.6a7.11,7.11,0,0,0,3.22-5.57v-6.51C33.05,359.53,31.61,358.69,29.83,359.72Z" style="fill:#f0f0f0"></path><path d="M47.94,330.81,18.16,348a7.11,7.11,0,0,0-3.22,5.57v6.51c0,2.05,1.44,2.89,3.22,1.86l29.78-17.19a7.11,7.11,0,0,0,3.22-5.58v-6.51C51.16,330.61,49.72,329.78,47.94,330.81Z" style="fill:#f0f0f0"></path><path d="M47.94,402.07,18.16,419.26a7.11,7.11,0,0,0-3.22,5.58v6.51c0,2,1.44,2.88,3.22,1.85L47.94,416a7.11,7.11,0,0,0,3.22-5.57v-6.51C51.16,401.88,49.72,401,47.94,402.07Z" style="fill:#f0f0f0"></path><path d="M86.68,106.47,56.9,123.66a7.14,7.14,0,0,0-3.21,5.58v6.51c0,2.05,1.44,2.88,3.21,1.85l29.78-17.19a7.11,7.11,0,0,0,3.22-5.57v-6.51C89.9,106.28,88.46,105.45,86.68,106.47Z" style="fill:#f0f0f0"></path><path d="M73.62,256.2v6.51c0,2.05,1.44,2.88,3.22,1.86l29.78-17.2a7.09,7.09,0,0,0,3.22-5.57v-6.51c0-2-1.44-2.88-3.22-1.85L76.84,250.63A7.09,7.09,0,0,0,73.62,256.2Z" style="fill:#f0f0f0"></path><path d="M189.86,189.2v6.51c0,2,1.44,2.89,3.22,1.86l29.78-17.19a7.13,7.13,0,0,0,3.21-5.58v-6.51c0-2-1.44-2.88-3.21-1.85l-29.78,17.19A7.11,7.11,0,0,0,189.86,189.2Z" style="fill:#f0f0f0"></path><path d="M247.41,104.74v6.51c0,2.06,1.44,2.89,3.22,1.86L276.85,98V84L250.63,99.17A7.14,7.14,0,0,0,247.41,104.74Z" style="fill:#f0f0f0"></path><path d="M244.88,215.38v-6.51c0-2.05-1.44-2.88-3.21-1.86l-29.78,17.2a7.09,7.09,0,0,0-3.22,5.57v6.51c0,2.05,1.44,2.88,3.22,1.86L241.67,221A7.11,7.11,0,0,0,244.88,215.38Z" style="fill:#f0f0f0"></path><path d="M164.18,168.15l-29.79,17.2a7.11,7.11,0,0,0-3.21,5.57v6.51c0,2,1.44,2.88,3.21,1.86l29.79-17.2a7.11,7.11,0,0,0,3.21-5.57V170C167.39,168,166,167.13,164.18,168.15Z" style="fill:#f0f0f0"></path><path d="M89.9,304.71V298.2c0-2.05-1.44-2.88-3.22-1.85L56.9,313.54a7.13,7.13,0,0,0-3.21,5.57v6.51c0,2.05,1.44,2.88,3.21,1.86l29.78-17.2A7.09,7.09,0,0,0,89.9,304.71Z" style="fill:#f0f0f0"></path><path d="M209.86,372.33l29.78-17.19a7.14,7.14,0,0,0,3.21-5.58v-6.51c0-2.05-1.44-2.88-3.21-1.85l-29.78,17.19a7.11,7.11,0,0,0-3.22,5.57v6.51C206.64,372.52,208.08,373.35,209.86,372.33Z" style="fill:#f0f0f0"></path><path d="M222.86,383.52l-29.78,17.19a7.11,7.11,0,0,0-3.22,5.57v6.51c0,2,1.44,2.88,3.22,1.86l29.78-17.19a7.14,7.14,0,0,0,3.21-5.58v-6.51C226.07,383.32,224.63,382.49,222.86,383.52Z" style="fill:#f0f0f0"></path><path d="M151.11,352.32v-6.51c0-2.05-1.44-2.88-3.21-1.86l-29.78,17.2a7.09,7.09,0,0,0-3.22,5.57v6.51c0,2,1.44,2.88,3.22,1.86l29.78-17.2A7.11,7.11,0,0,0,151.11,352.32Z" style="fill:#f0f0f0"></path><path d="M144.22,445.77v-6.51c0-2.05-1.44-2.89-3.22-1.86l-29.78,17.19a7.13,7.13,0,0,0-3.21,5.58v6.51c0,2.05,1.44,2.88,3.21,1.85L141,451.34A7.11,7.11,0,0,0,144.22,445.77Z" style="fill:#f0f0f0"></path><path d="M76.84,448.76l29.78-17.2a7.09,7.09,0,0,0,3.22-5.57v-6.51c0-2.05-1.44-2.88-3.22-1.86l-29.78,17.2a7.09,7.09,0,0,0-3.22,5.57v6.51C73.62,449,75.06,449.78,76.84,448.76Z" style="fill:#f0f0f0"></path><path d="M261.6,279.65l-29.78,17.19a7.16,7.16,0,0,0-3.22,5.57v6.51c0,2.05,1.45,2.89,3.22,1.86l29.78-17.19a7.13,7.13,0,0,0,3.22-5.58V281.5C264.82,279.45,263.38,278.62,261.6,279.65Z" style="fill:#f0f0f0"></path><path d="M125.43,84.14,95.65,101.33a7.11,7.11,0,0,0-3.22,5.57v6.51c0,2.06,1.44,2.89,3.22,1.86l29.78-17.19a7.11,7.11,0,0,0,3.22-5.57V86C128.65,83.94,127.21,83.11,125.43,84.14Z" style="fill:#f0f0f0"></path><path d="M250.31,38.46,220.53,55.65a7.13,7.13,0,0,0-3.21,5.58v6.5c0,2.06,1.44,2.89,3.21,1.86L250.31,52.4a7.11,7.11,0,0,0,3.22-5.57V40.32C253.53,38.27,252.09,37.43,250.31,38.46Z" style="fill:#f0f0f0"></path><path d="M128.65,350.85v-6.51c0-2-1.44-2.88-3.22-1.86l-29.78,17.2a7.09,7.09,0,0,0-3.22,5.57v6.51c0,2.05,1.44,2.88,3.22,1.85l29.78-17.19A7.11,7.11,0,0,0,128.65,350.85Z" style="fill:#f0f0f0"></path><path d="M231.82,243.71l29.78-17.2a7.09,7.09,0,0,0,3.22-5.57v-6.51c0-2.05-1.44-2.88-3.22-1.86l-29.78,17.2a7.15,7.15,0,0,0-3.22,5.57v6.51C228.6,243.9,230.05,244.73,231.82,243.71Z" style="fill:#f0f0f0"></path><path d="M167.39,260.05v-6.51c0-2-1.44-2.89-3.21-1.86l-29.79,17.19a7.13,7.13,0,0,0-3.21,5.58V281c0,2.05,1.44,2.88,3.21,1.85l29.79-17.19A7.13,7.13,0,0,0,167.39,260.05Z" style="fill:#f0f0f0"></path><path d="M276.85,441l-26.22,15.13a7.13,7.13,0,0,0-3.22,5.58v6.51c0,2.05,1.44,2.88,3.22,1.85l26.22-15.13Z" style="fill:#f0f0f0"></path></g><rect x="276.35" y="32.92" width="1" height="439.94" style="fill:#e0e0e0"></rect></g></g><g id="freepik--Moon--inject-2"><g id="freepik--moon--inject-2"><circle cx="408.36" cy="98.79" r="55.03" transform="translate(-7.22 37.07) rotate(-5.15)" style="fill:#407BFF;opacity:0.05"></circle><circle cx="408.36" cy="98.79" r="47.67" transform="translate(-10.02 60.35) rotate(-8.35)" style="fill:#407BFF;opacity:0.15"></circle><circle cx="408.36" cy="98.79" r="39.89" transform="translate(-8.56 46.84) rotate(-6.5)" style="fill:#407BFF;opacity:0.25"></circle><g id="freepik--moon--inject-2"><circle cx="408.36" cy="98.79" r="31.91" transform="translate(-11.77 96.46) rotate(-13.28)" style="fill:#fff"></circle><path d="M396.6,114.08a1.83,1.83,0,0,0,1.35,1.76c.84.13,1.85-.55,2.45,0s.16,1.26.29,1.91a1.48,1.48,0,0,0,2.62.38c.23-.45.21-1,.46-1.44a1.32,1.32,0,0,1,2.39,1.11c-.24.67-1,1-1.5,1.48a2.52,2.52,0,0,0-.94,2.19,1.64,1.64,0,0,0,1.71,1.44,6.22,6.22,0,0,0,1.37-.57,2.54,2.54,0,0,1,2.85.77c.24.31.41.68.66,1a2.35,2.35,0,0,0,3.18.17,2.89,2.89,0,0,0,.71-3.22c-.19-.48-.5-.9-.68-1.38a2.48,2.48,0,0,1,.66-2.74,1.94,1.94,0,0,1,2.68.26c.52.71.4,1.69.64,2.54s1.32,1.62,1.94,1,.2-1.55.79-2,1.26.1,1.47.69a7.24,7.24,0,0,1,.15,1.87c0,.63.38,1.33,1,1.44s1.27-.64,1.54-1.33.51-1.5,1.19-1.76,1.46.16,2.16,0c1.72-.49.9-3.62,2.47-4.48,1-.55,2.24.23,3.34,0a9.55,9.55,0,0,0,1.93-1.15,4.36,4.36,0,0,1,1.13-.35A31.68,31.68,0,0,0,440,94.73a9.79,9.79,0,0,0-1.91-3.48,31,31,0,0,1-2.75-2.87c-.56-.82-.87-1.8-1.49-2.59a2.26,2.26,0,0,0-2.6-.91,1.82,1.82,0,0,0-.9,1.89,2.89,2.89,0,0,0,1.2,1.83c.53.41,1.2.72,1.46,1.34a1.51,1.51,0,0,1-.52,1.73,2.06,2.06,0,0,1-1.85.28c-1.08-.34-.37-1.3-.13-2,.16-.47.12-1.1-.33-1.31s-.93.12-1.37.33a2.71,2.71,0,0,1-1.11.27.87.87,0,0,1-.48-.08c-.48-.23-.46-1-.21-1.42a4.74,4.74,0,0,0,.75-1.42,1.62,1.62,0,0,0-.85-1.56,3.78,3.78,0,0,0-1.82-.42,2.25,2.25,0,0,1-1.87-.63c-.52-.46-.92-1-1.48-1.43A3.52,3.52,0,0,0,416.12,85a2.07,2.07,0,0,1-.22,1.29,3.1,3.1,0,0,1-.78.54,1.83,1.83,0,0,0,.33,3.06c1.09.42,2.32-.18,3.43-.15,1.85,0,1.95,2.24.12,2.5-.56.09-1.59-.1-2.43,0s-1.39.36-1.34,1.28,1.25,1.8.67,2.49a1,1,0,0,1-1.23,0,7.74,7.74,0,0,1-1-.93,2.06,2.06,0,0,0-1.84-.58,1.31,1.31,0,0,0-1,1.5c.18.66,1,1.19.76,1.83s-1,.61-1.48.33-.86-.77-1.36-1.06c-1.17-.65-2.69,0-3.51,1.09s-1,2.83.22,3.34c.73.32,1.55,0,2.34-.13s1.82.47,1.59,1.23c-.15.5-.76.7-1.1,1.11a1.55,1.55,0,0,0,.18,2,2.87,2.87,0,0,0,2,.75c1.81,0,3.73-1.21,3.9-3,.09-1-.3-2.13.33-2.9a2.29,2.29,0,0,1,1.93-.63,3.35,3.35,0,0,1,1.81.52,1.64,1.64,0,0,1,.72,1.64c-.15.61-.7,1-1.09,1.5s-.6,1.29-.1,1.66c.33.25.81.17,1.16.38.68.41.34,1.56-.38,1.88a3.69,3.69,0,0,1-2.32-.06,2.64,2.64,0,0,0-2.27.25c-.88.72-.56,2.19.17,3.06.4.48.94,1,.89,1.6a1.3,1.3,0,0,1-.85,1,1.88,1.88,0,0,1-2.42-1.36,10.77,10.77,0,0,1,0-1.27,2.42,2.42,0,0,0-1.58-2.18,1.9,1.9,0,0,0-2.33,1.09c-.18.52-.09,1.11-.32,1.61a1.62,1.62,0,0,1-2.62.21,2,2,0,0,1,.54-2.77c.7-.47,1.8-.72,1.87-1.57a1.13,1.13,0,0,0-.27-.78,1.8,1.8,0,0,0-2.94.42,3.06,3.06,0,0,1-.35.88c-.66.84-2.42,0-2.92,1-.24.47,0,1.08-.21,1.55s-1.06.52-1.67.61A3.15,3.15,0,0,0,396.6,114.08ZM377.08,92.41a5,5,0,0,0,1.19-.36c.7-.27,1.61-.45,2.1.12.3.35.31.86.53,1.26a1.66,1.66,0,0,0,2,.65,2.69,2.69,0,0,0,1.49-1.62,5.34,5.34,0,0,1,.79-1.86,1.55,1.55,0,0,1,2.63,1.48c-.26.92-1.28,1.4-1.75,2.23a2,2,0,0,0,.45,2.47,1.66,1.66,0,0,0,2.36-.46c.38-.7.27-1.78,1-2.06.91-.35,1.49,1,2.3,1.52a1.62,1.62,0,0,0,2.06-2.48c-.32-.32-.78-.52-1-.93-.37-.83.77-1.63,1.66-1.44a9.31,9.31,0,0,1,2.34,1.34,4.17,4.17,0,0,0,4.18-.13,2.46,2.46,0,0,0,1-1.11c.51-1.24-.43-2.8.29-3.93a1.53,1.53,0,0,1,2.72,1.37c-.27.72-1,1.14-1.4,1.81a2.55,2.55,0,0,0,1.17,3.23,5.88,5.88,0,0,0,3.71.44,2,2,0,0,0,1.17-.45c.83-.86-.33-2.26-.17-3.45.18-1.36,2-2,2.17-3.42.08-.74-.41-1.5-.2-2.22.4-1.35,2.72-1.27,3.13-2.62a1.57,1.57,0,0,0-.61-1.62,3.13,3.13,0,0,0-1.74-.56c-.82-.06-1.86-.1-2.17-.86s.59-1.65,1.44-2a4.35,4.35,0,0,1,2.38-.33A2.21,2.21,0,0,1,416.1,78a5.66,5.66,0,0,0,.16.82,2,2,0,0,0,2.1,1,14.06,14.06,0,0,1,2.48-.33c2.32.19,3.67,3.18,6,3.31a.8.8,0,0,0,.66-.2.9.9,0,0,0,.09-.67,6.64,6.64,0,0,0-4-5c-1.31-.53-2.8-.62-4-1.32a22.12,22.12,0,0,1-2.38-1.86,3.45,3.45,0,0,0-2.8-.84c-1.15.28-1.86,1.41-2.56,2.36s-1.77,1.93-2.93,1.64a3,3,0,0,0-1.06-1.58c-.55-.34-1.45-.14-1.57.49-.08.43.22.83.3,1.26.18,1-.69,1.77-1.54,2.22A5,5,0,0,0,402.69,81a7.46,7.46,0,0,0-.43,1.23,2.83,2.83,0,0,1-2,1.91,1.81,1.81,0,0,1-2.15-1.38,2.8,2.8,0,0,1,.6-1.81,3.26,3.26,0,0,0,.66-1.81c0-.65-.7-1.29-1.3-1s-.64,1.37-1.2,1.88-1.53.19-2.27-.12-1.77-.46-2.17.23.14,1.4.3,2.11a2.18,2.18,0,0,1-3.19,2.4c-.62-1,1.33-2.2.91-3.34-.3-.79-1.47-.77-2.19-.33a2.32,2.32,0,0,1-1.17.54c-.7,0-1.13-.85-1-1.53a3.58,3.58,0,0,1,1.18-1.68c.47-.44,1.1-.91,1.69-.67.39.16.6.57.91.87a1.78,1.78,0,0,0,2.4,0,10.12,10.12,0,0,1,.88-1.08c.88-.66,2.25,0,3.19-.56a1.43,1.43,0,0,0,.38-2c-.26-.35-.71-.6-.79-1-.14-.78.8-1.38.77-2.21a2.86,2.86,0,0,0-1.14-1.93l0,0a32.05,32.05,0,0,0-14.22,12.23,3,3,0,0,0,.87,1.34,14.57,14.57,0,0,1,1.25.94,1,1,0,0,1,.11,1.41,1.24,1.24,0,0,1-.83.25,5.12,5.12,0,0,1-2.82-.79l-.25-.16A31.47,31.47,0,0,0,377.08,92.41Z" style="fill:#407BFF;opacity:0.1"></path></g></g></g><g id="freepik--Stars--inject-2"><g id="freepik--stars--inject-2"><path d="M323.83,117.57a92.71,92.71,0,0,1,7.84-5.28c-2.29,2.11-4.68,4-7.1,5.84,2.42,1.83,4.81,3.73,7.1,5.85a90.5,90.5,0,0,1-7.84-5.29A89,89,0,0,1,316,124c2.29-2.12,4.68-4,7.1-5.85-2.42-1.83-4.81-3.72-7.1-5.84A88.87,88.87,0,0,1,323.83,117.57Z" style="fill:#e0e0e0"></path><path d="M324.62,114.12l-.79-12.76L323,114.12a3.89,3.89,0,0,1-3.84,3.38l-10.87.63,10.87.64a3.87,3.87,0,0,1,3.84,3.38l.79,12.76.79-12.76a3.87,3.87,0,0,1,3.84-3.38l10.87-.64-10.87-.63A3.89,3.89,0,0,1,324.62,114.12Z" style="fill:#f0f0f0"></path><path d="M393.56,180.44a46.26,46.26,0,0,1,3.95-2.66c-1.15,1.07-2.36,2-3.57,2.94,1.21.92,2.42,1.88,3.57,2.94a44,44,0,0,1-3.95-2.66,42.5,42.5,0,0,1-3.94,2.66c1.15-1.06,2.35-2,3.57-2.94a44.51,44.51,0,0,1-3.57-2.94A44.58,44.58,0,0,1,393.56,180.44Z" style="fill:#e0e0e0"></path><path d="M394,178.45l-.45-7.23-.44,7.23a2.2,2.2,0,0,1-2.18,1.91l-6.15.36,6.15.36a2.2,2.2,0,0,1,2.18,1.92l.44,7.23L394,183a2.2,2.2,0,0,1,2.18-1.92l6.15-.36-6.15-.36A2.2,2.2,0,0,1,394,178.45Z" style="fill:#f0f0f0"></path><path d="M299.11,151.51a1.37,1.37,0,1,0,1.36,1.36A1.36,1.36,0,0,0,299.11,151.51Zm-3.53,4.28a.81.81,0,0,0-.81.81.81.81,0,1,0,1.62,0A.81.81,0,0,0,295.58,155.79Zm62.22-4.39a1.58,1.58,0,1,0,.89,2A1.59,1.59,0,0,0,357.8,151.4ZM478.17,36.64A1.37,1.37,0,1,0,479.54,38,1.36,1.36,0,0,0,478.17,36.64Zm-5.92,38.14a.65.65,0,0,0,.84-.37.65.65,0,0,0-1.21-.48A.67.67,0,0,0,472.25,74.78ZM346.44,58.13a1.14,1.14,0,1,0,1.41-.78A1.14,1.14,0,0,0,346.44,58.13Zm-38,20.08a.64.64,0,0,0-.27-1.25.65.65,0,0,0-.49.76A.64.64,0,0,0,308.46,78.21Zm60.68,85.9a.86.86,0,1,0,.49,1.12A.86.86,0,0,0,369.14,164.11ZM352.61,50.22a2.28,2.28,0,1,0,2.82-1.57A2.29,2.29,0,0,0,352.61,50.22ZM472.49,36a.66.66,0,1,0,.66.66A.66.66,0,0,0,472.49,36ZM293.43,150.85a.66.66,0,1,0,.66.66A.67.67,0,0,0,293.43,150.85Zm182-109.12a.82.82,0,0,0-.82-.81.81.81,0,0,0-.81.81.82.82,0,0,0,.81.82A.82.82,0,0,0,475.46,41.73ZM303.8,79.91a.81.81,0,0,0-.6,1,.78.78,0,1,0,.6-1Zm146,83a.65.65,0,1,0,.37.85A.66.66,0,0,0,449.77,163ZM307.92,82a1.33,1.33,0,1,0,1.57,1A1.32,1.32,0,0,0,307.92,82Zm74.29,159.3a.65.65,0,1,0,.37.85A.66.66,0,0,0,382.21,241.27Zm20.7-17.37a1.3,1.3,0,1,0,.73,1.69A1.31,1.31,0,0,0,402.91,223.9ZM479,166.39a.65.65,0,1,0-.48,1.21.65.65,0,0,0,.48-1.21ZM398.75,220a.65.65,0,0,0-.84.37.64.64,0,0,0,.37.84.65.65,0,1,0,.47-1.21Zm28-38.57a.66.66,0,0,0,.5-.78.65.65,0,0,0-.78-.5.64.64,0,0,0-.5.78A.65.65,0,0,0,426.73,181.4Zm7.68-151.16A1.37,1.37,0,1,0,433,31.6,1.37,1.37,0,0,0,434.41,30.24Zm-7-2a.66.66,0,1,0,.65.65A.65.65,0,0,0,427.37,28.22Zm-1.19,157a1.37,1.37,0,1,0,1.62,1A1.37,1.37,0,0,0,426.18,185.26Zm3.34-152.11a.82.82,0,0,0-.82.82.82.82,0,0,0,.82.81.81.81,0,0,0,.81-.81A.82.82,0,0,0,429.52,33.15ZM405.45,204.53a.64.64,0,0,0-.84.37.65.65,0,0,0,.36.84.65.65,0,1,0,.48-1.21ZM313.16,42.64a1.26,1.26,0,1,0,1.26,1.26A1.25,1.25,0,0,0,313.16,42.64ZM421.9,183.15a.81.81,0,1,0,.35,1.59.81.81,0,0,0-.35-1.59Zm58.45-56a.66.66,0,1,0-.78-.5A.66.66,0,0,0,480.35,127.17ZM479.8,131a1.37,1.37,0,1,0,1.63,1.05A1.38,1.38,0,0,0,479.8,131Zm-4.27-2.11a.83.83,0,0,0-.63,1,.81.81,0,1,0,.63-1Z" style="fill:#e6e6e6"></path></g></g><g id="freepik--Balcony--inject-2"><g id="freepik--balcony--inject-2"><polygon id="freepik--Shadow--inject-2" points="226.05 338.56 41.31 445.22 41.31 389.98 226.03 283.33 226.05 338.56" style="opacity:0.15"></polygon><g id="freepik--Floor--inject-2"><polygon points="41.32 389.97 226.04 283.32 342.46 350.47 157.74 457.11 41.32 389.97" style="fill:#455a64"></polygon><polygon points="41.32 389.97 41.32 396.67 157.74 463.81 157.74 457.11 41.32 389.97" style="fill:#263238"></polygon><polygon points="157.74 457.11 342.46 350.47 342.46 357.16 157.74 463.81 157.74 457.11" style="fill:#37474f"></polygon></g><g id="freepik--Door--inject-2"><polygon points="52.39 388.09 52.39 123.03 219.7 26.43 219.71 291.49 203.99 300.56 203.99 53.66 68.11 132.11 68.11 379.01 52.39 388.09" style="fill:#407BFF"></polygon><polygon points="52.39 388.09 52.39 123.03 219.7 26.43 219.71 291.49 203.99 300.56 203.99 53.66 68.11 132.11 68.11 379.01 52.39 388.09" style="fill:#fff;opacity:0.7000000000000001"></polygon><polygon points="52.39 388.09 48.48 385.83 48.48 120.76 52.39 123.03 52.39 388.09" style="fill:#407BFF"></polygon><polygon points="52.39 388.09 48.48 385.83 48.48 120.76 52.39 123.03 52.39 388.09" style="fill:#fff;opacity:0.5"></polygon><polygon points="48.48 120.76 215.78 24.17 219.7 26.43 52.39 123.03 48.48 120.76" style="fill:#407BFF"></polygon><polygon points="48.48 120.76 215.78 24.17 219.7 26.43 52.39 123.03 48.48 120.76" style="fill:#fff;opacity:0.85"></polygon><polygon points="203.98 300.56 200.08 298.31 200.08 55.92 203.99 53.66 203.98 300.56" style="fill:#407BFF"></polygon><polygon points="203.98 300.56 200.08 298.31 200.08 55.92 203.99 53.66 203.98 300.56" style="fill:#fff;opacity:0.5"></polygon><g id="freepik--Window--inject-2"><polygon points="200.53 298.49 68.1 374.95 68.1 132.12 200.53 55.66 200.53 298.49" style="fill:#407BFF"></polygon><polygon points="200.53 298.49 68.1 374.95 68.1 132.12 200.53 55.66 200.53 298.49" style="opacity:0.45"></polygon><path d="M68.1,132.12V375l61.19-35.33V96.79Z" style="opacity:0.2"></path><polygon points="189.86 61.83 189.86 304.65 172.54 314.64 127.31 340.76 118.67 345.74 118.67 102.91 148.98 85.42 166.97 75.04 181.23 66.8 189.86 61.83" style="fill:#407BFF;opacity:0.15"></polygon><path d="M118.67,274v27.15l71.19-119.54V154.42Zm0-75.52v53.83l71.19-119.55V78.9Zm0,122.15v14l71.19-119.54v-14Zm0-217.69v33.4L149,85.42Zm8.64,237.85,45.23-26.11,17.32-29.1V235.72ZM167,75l-48.3,81.1v15.73L181.23,66.8Z" style="fill:#fff;opacity:0.02"></path><polygon points="108.62 108.72 112.14 106.69 112.14 349.52 108.62 347.52 108.62 108.72" style="fill:#407BFF"></polygon><polygon points="108.62 108.72 112.14 106.69 112.14 349.52 108.62 347.52 108.62 108.72" style="fill:#fff;opacity:0.30000000000000004"></polygon><polygon points="118.68 102.92 112.14 106.69 112.14 349.52 118.68 345.75 118.68 102.92" style="fill:#407BFF"></polygon><polygon points="118.68 102.92 112.14 106.69 112.14 349.52 118.68 345.75 118.68 102.92" style="fill:#fff;opacity:0.6000000000000001"></polygon><polygon points="189.93 61.77 183.39 65.55 183.39 308.38 189.93 304.61 189.93 61.77" style="fill:#407BFF"></polygon><polygon points="132.81 341.67 203.99 300.57 203.99 53.66 132.81 94.76 132.81 341.67" style="fill:#407BFF;opacity:0.15"></polygon><path d="M184.81,64.73l-52,87.34V167.8L199.09,56.49Zm1.85,245.84L204,281.47V231.64l-62.54,105ZM132.81,94.76v37.47l34-57.1Zm0,235.77L204,211V197L132.81,316.53Zm0-136.16V248.2L204,128.66V74.82Zm0,102.67L204,177.49V150.34L132.81,269.89Z" style="fill:#fff;opacity:0.1"></path><polygon points="129.29 96.79 132.81 94.76 132.81 341.67 129.29 339.62 129.29 96.79" style="fill:#407BFF"></polygon><polygon points="129.29 96.79 132.81 94.76 132.81 341.67 129.29 339.62 129.29 96.79" style="fill:#fff;opacity:0.5"></polygon><polygon points="139.35 90.98 132.81 94.76 132.81 341.67 139.35 337.89 139.35 90.98" style="fill:#407BFF"></polygon><polygon points="139.35 90.98 132.81 94.76 132.81 341.67 139.35 337.89 139.35 90.98" style="fill:#fff;opacity:0.7000000000000001"></polygon></g></g></g><g id="freepik--railing-2--inject-2"><g id="freepik--Railing--inject-2"><path d="M339.26,272.11,225,206.68h0l-1.36-.77,0,0a2,2,0,0,1-.63-1.66,4.54,4.54,0,0,1,1.72-3.64,1,1,0,0,1,1-.08h0l113.66,65v0l1.39.79a2.84,2.84,0,0,1,1.45,2.47C342.13,271,339.26,272.11,339.26,272.11Z" style="fill:#37474f"></path><path d="M338.52,269v79.22a.6.6,0,0,1-.34.48,1.82,1.82,0,0,1-1.67,0,.58.58,0,0,1-.34-.48V269Z" style="fill:#37474f"></path><path d="M337.93,276.73,224.14,211.16a.59.59,0,0,0-.59.06,1.83,1.83,0,0,0-.83,1.44.58.58,0,0,0,.24.54l115,66.3Z" style="fill:#263238"></path><polygon points="337.93 286.34 222.72 219.8 222.72 277.46 337.93 344.01 337.93 286.34" style="fill:#407BFF;opacity:0.2"></polygon></g></g></g><g id="freepik--Shadows--inject-2"><path id="freepik--shadow--inject-2" d="M145.82,341.69c-7.06,5-13,12.08-14.93,20.51a15,15,0,0,0,0,7.73c1.71,5.57,8.05,8.72,13.88,8.44s11.16-3.26,16-6.55,9.4-7,14.8-9.23a39.41,39.41,0,0,1,11.36-2.53c13.67-1.19,27.35,2.3,41.06,1.83a22.25,22.25,0,0,0,9.59-2c2.93-1.52,5.33-4.4,5.45-7.7.16-4.22-3.27-7.67-6.73-10.1-10.4-7.32-23-10.43-35.53-11.62-11.29-1.08-24-1.82-35,1.47A69.88,69.88,0,0,0,145.82,341.69Z" style="fill:#37474f"></path><ellipse id="freepik--shadow--inject-2" cx="263.41" cy="358.86" rx="44.82" ry="25.88" style="fill:#37474f"></ellipse></g><g id="freepik--Character--inject-2"><g id="freepik--character--inject-2"><g id="freepik--Bottom--inject-2"><path d="M168.63,221.91c-6.62,6-6.5,12.21-7.6,23-.94,9.22-3.31,40-3.31,40s-4.52,4.6-7.11,18.38c-2.27,12.09-5.24,30.25-5.24,30.25l-1,4.41s-.72,3,1.59,4.66c3.29,2.33,6.7,3.94,8.74.37a18.35,18.35,0,0,0,2.37-6.42s4.71-10.79,8.76-19.72,7.43-16.49,11.78-27.27,9.78-29.07,9.78-29.07l13.21,22.61a60.23,60.23,0,0,0-.91,16.83c1,8.4,5.29,28,5.11,31.8s-1.91,8.32-.75,11.22,5.2,1.84,6.83,2.31c4.13,1.18,6,4.58,10,6.51s10.7,1.21,13.65-.42c3.6-2,1-5.54-2.49-6.79s-7.21-2.53-10.36-6.73a15.16,15.16,0,0,1-3.49-10.51c.11-2.22,2.41-38,2.73-43.56s.55-6.68-3.19-21.1c-3.27-12.59-8.93-31.86-8.93-31.86s-7.33,3.46-19.78,2.43c-15.84-1.3-23.47-8.69-23.47-8.69" style="fill:#ffa8a7"></path><path d="M165,223.86c-4.26,5.62-4.62,16.17-5.65,27.56s-3.31,33.3-3.31,33.3c-2.81,4.95-6.18,8.11-10.1,43.17,4.24,5.15,13.53,4.61,13.53,4.61s17.17-37.36,18.82-41.45,9.92-28.95,9.92-28.95l11.58,21.17a59.32,59.32,0,0,0-1.17,9.17c-.23,7.64,2.35,19.49,4.38,32.47,0,0,2.09,2.1,8.14,1.57,6.77-.59,7.94-3.25,7.94-3.25s1.95-31.7,2.16-37c.3-7.49.81-9.21-1.21-17.51s-11.16-38.57-11.16-38.57Z" style="fill:#263238"></path><path d="M152.56,362.1c-.69,3.74-1.6,6.17-3.24,8.21s-4.28,2.43-6.8,1.46-5.62-3.11-6-6.46a20.75,20.75,0,0,1,1.12-9Z"></path><path d="M145.37,333.49c-1.08-.05-2,5-3.28,10-1.35,5.35-3,7.41-4.14,11.8-1.31,5-1.32,7.32.1,10.62s7.46,7.11,11.17,3.09c3-3.27,3.63-7.25,4-12.36a64.72,64.72,0,0,1,2.33-12.25c1-4,2.31-7.31,1.44-7.85-.15.56-1.5,4.5-2,4.18-.21-.14.07-.95.17-1.44a1.74,1.74,0,0,0-.14-1.27,2.11,2.11,0,0,0-1.12-.67c-1-.33-3.43-1.48-4.49-1.71-.52-.11-1.34-.22-1.88-.28a4.56,4.56,0,0,0-1.38,0,1,1,0,0,0-.64.44,1.88,1.88,0,0,0-.13.58,4.1,4.1,0,0,1-.26,1c-.06.14-.19.31-.34.26s-.1-.33-.07-.46C144.91,336.36,145,335.93,145.37,333.49Z" style="fill:#455a64"></path><path d="M149.18,360.11a.39.39,0,0,0,.25-.71,13.48,13.48,0,0,0-8.7-2,.4.4,0,0,0-.34.45.4.4,0,0,0,.45.33A13,13,0,0,1,149,360,.31.31,0,0,0,149.18,360.11Z" style="fill:#ebebeb"></path><path d="M150.58,356.23a.4.4,0,0,0,.35-.18.39.39,0,0,0-.12-.55,16.53,16.53,0,0,0-9.62-2.2.39.39,0,0,0-.35.43.4.4,0,0,0,.43.36,16,16,0,0,1,9.11,2.07A.48.48,0,0,0,150.58,356.23Z" style="fill:#ebebeb"></path><path d="M151.39,352.38a.44.44,0,0,0,.35-.17.4.4,0,0,0-.1-.55c-.19-.13-4.63-3.12-9.62-2.11a.4.4,0,0,0-.31.47.4.4,0,0,0,.47.31c4.64-.94,9,1.95,9,2A.58.58,0,0,0,151.39,352.38Z" style="fill:#ebebeb"></path><path d="M152.89,349a.39.39,0,0,0,.25-.71c-.21-.15-5.21-3.48-10.69-2.28a.41.41,0,0,0-.31.48.4.4,0,0,0,.48.29c5.14-1.13,10,2.12,10.06,2.16A.42.42,0,0,0,152.89,349Z" style="fill:#ebebeb"></path><path d="M153.78,345.13a.42.42,0,0,0,.35-.18.39.39,0,0,0-.11-.54c-.23-.15-5.59-3.6-10.75-2.39a.4.4,0,0,0-.3.47.41.41,0,0,0,.49.29c4.81-1.13,10.07,2.25,10.12,2.28A.48.48,0,0,0,153.78,345.13Z" style="fill:#ebebeb"></path><path d="M236.47,347.79c.26,1.52.5,3.91-.66,4.85a13.87,13.87,0,0,1-10.23,2.27,17.9,17.9,0,0,1-9.83-4.3,20.92,20.92,0,0,0-7-3.56c-2.06-.73-4.14-1.26-5.13-2.57-.57-.75-.68-5.77-.68-5.77Z"></path><path d="M211.62,331l-.35.23a4.15,4.15,0,0,0-1.08.92c-.69.9-.24,2.17-.14,3.22-.67.15-1.23-1.25-1.43-1.7a4.45,4.45,0,0,0-1-1.52,11.85,11.85,0,0,0-1.62-.95c-.72-.43-1.22-.43-1.23-.82,0-.06,0-.64,0-1.1a.69.69,0,0,0-.83.53c-.17.79-.6,4.1-1,5.41a13.06,13.06,0,0,0,.3,7.16c1.29,1.63,3.72,2.58,5.93,3.45s4.71,1.59,7,3.5a20.49,20.49,0,0,0,10.66,4.13c3.92,0,8.37-1.14,9.42-2.92,1.29-2.2.29-5-5.47-7.77-1.24-.59-2.41-1.35-3.58-2.05l-.25-.15a33.81,33.81,0,0,1-4.78-3.34,8.92,8.92,0,0,1-2.89-5.73,6.47,6.47,0,0,0-.26-1.31,1.77,1.77,0,0,0-.84-1,2.38,2.38,0,0,0-1.3-.08A14.05,14.05,0,0,0,211.62,331Z" style="fill:#455a64"></path><path d="M223.86,345a.35.35,0,0,0,.23-.12,8.06,8.06,0,0,1,6-2.22.36.36,0,0,0,.4-.3.37.37,0,0,0-.31-.4,8.74,8.74,0,0,0-6.68,2.47.34.34,0,0,0,0,.49A.31.31,0,0,0,223.86,345Z" style="fill:#ebebeb"></path><path d="M220.75,343.07a.34.34,0,0,0,.23-.13,8,8,0,0,1,6-2.21.36.36,0,1,0,.09-.71,8.75,8.75,0,0,0-6.68,2.47.35.35,0,0,0,0,.5A.4.4,0,0,0,220.75,343.07Z" style="fill:#ebebeb"></path><path d="M217.63,341.2a.37.37,0,0,0,.23-.12,8,8,0,0,1,6-2.22.36.36,0,0,0,.4-.31.34.34,0,0,0-.31-.39,8.75,8.75,0,0,0-6.68,2.46.35.35,0,0,0,0,.5A.4.4,0,0,0,217.63,341.2Z" style="fill:#ebebeb"></path><path d="M214.74,339.08A.39.39,0,0,0,215,339c.89-1,4.21-2.39,6.61-2.1a.35.35,0,0,0,.4-.3.35.35,0,0,0-.31-.4c-2.74-.34-6.24,1.16-7.25,2.34a.35.35,0,0,0,0,.5A.39.39,0,0,0,214.74,339.08Z" style="fill:#ebebeb"></path><path d="M212.32,336.56a.37.37,0,0,0,.24-.12c1.24-1.49,4.83-2.18,7.27-1.88a.35.35,0,0,0,.4-.31.34.34,0,0,0-.31-.39c-2.68-.33-6.5.44-7.91,2.13a.33.33,0,0,0,.05.49A.31.31,0,0,0,212.32,336.56Z" style="fill:#ebebeb"></path><path d="M188.19,262.1l1.35-9.42s6.43-.94,10.68-5.18c0,0-.79,4.36-7.91,7.12l-2.22,6.32,9.68,22.33Z"></path></g><g id="freepik--Top--inject-2"><path d="M273.18,224.41a.13.13,0,0,1,.07-.1.43.43,0,0,1,.25-.05,12,12,0,0,1,3.82,1,3.54,3.54,0,0,1,1,.55c.9.76,1.7,2.34,3.08,2.37.63,0,1.23-.4.95-1.07l-.83-1.92a4.48,4.48,0,0,0-.76-1.35,10.5,10.5,0,0,0-2.72-1.76,14.6,14.6,0,0,0-3.12-1.27c-1.22-.32-2.48-.43-3.71-.71A.24.24,0,0,1,271,220c-.08-.11,0-.25.1-.34a8.4,8.4,0,0,1,1.71-1.32,6.09,6.09,0,0,0,2-1.77,3,3,0,0,0,.45-1.05,1.72,1.72,0,0,0-.38-1.4c-.35-.4-.8,0-1.17.12l-1.45.65a23,23,0,0,1-2.85,1.1,19.75,19.75,0,0,0-5.12,2c-.6.38-1.15.83-1.71,1.25-2.47,1.84-6,.35-8.79-.41a52.93,52.93,0,0,1-5.15-1.89c-1.62-.64-3.09-1.14-4.68-1.87,0,0-5.8-13-9.45-22-5.53-13.61-12-12.53-16.33-11.67l-1.26,11.5s4,8.4,9.64,20.11c3.89,8.11,5.79,12.32,7.37,13.49s3.42,1.64,9.82,2.45c5.19.66,11.69,1.22,13.17,1.54a26.07,26.07,0,0,1,3.64,1.18c1.38.61,3.17.38,4.67.19s2.55-.54,3.94.06a12,12,0,0,1,3.54,2.06c1.09,1,1.72,2.41,3.39,2.54.31,0,1,0,.94-.42a1,1,0,0,0-.19-.45c-.26-.38-.51-.77-.76-1.16a18.09,18.09,0,0,0-1.36-1.89,12,12,0,0,0-2-1.83c-.15-.11-.32-.23-.35-.41a27.8,27.8,0,0,1,3.23,1.5,6.51,6.51,0,0,1,2,2.32,3.11,3.11,0,0,0,1.19,1.09,1.24,1.24,0,0,0,.32.12c.7.14.92-.42.76-1s-.26-.9-.38-1.35a1.61,1.61,0,0,0,1.31-.33.59.59,0,0,0,0-.44c-.12-.33-.27-.65-.42-1a33.18,33.18,0,0,0-1.82-3.3,5.06,5.06,0,0,0-.88-1.13,5.45,5.45,0,0,0-1-.67c-.64-.34-1.28-.68-1.93-1l-1-.43C273.65,224.69,273.19,224.58,273.18,224.41Z" style="fill:#ffa8a7"></path><path d="M272.5,227.63a11,11,0,0,1,2.2.69,12.08,12.08,0,0,1,2.07,1.09l.07.05a.93.93,0,0,1,.1.1l.08.12.16.25c.11.17.21.33.3.5l.54,1a3.2,3.2,0,0,0,1.51,1.57,2,2,0,0,1-1.08-.46,4.32,4.32,0,0,1-.79-.87c-.23-.32-.43-.65-.63-1l-.3-.47-.16-.23-.08-.11h0l0,0c-.58-.4-1.28-.77-1.93-1.14S273.19,228,272.5,227.63Z" style="fill:#f28f8f"></path><path d="M269.42,221.35a3.26,3.26,0,0,1-.28.85c-.13.29-.25.58-.4.86a8.81,8.81,0,0,1-1,1.58,6.88,6.88,0,0,1-2.69,2.07,5,5,0,0,1-1.83.34c-.22,0-.22-.55,0-.55a5.36,5.36,0,0,0,3.74-1.66,9.26,9.26,0,0,0,1.31-1.63l.55-.89a6.26,6.26,0,0,1,.57-1S269.42,221.3,269.42,221.35Z" style="fill:#f28f8f"></path><path d="M243.2,212.3c-7.72-18.42-11.4-28.58-15.88-30.58-4.07-1.82-9.62-.32-9.62-.32l-1.1,11.95,12.8,26.16C235.3,218.18,240.14,215.8,243.2,212.3Z" style="fill:#407BFF"></path><path d="M190.23,242.16c17.34,0,20.19-7.86,20.19-7.86,2.92-4.86,2.44-9.49,3.57-10.63,1.44-1.45,3.75-4.38,6.85-7.18,7.07-1.25,11-6.28,10.25-14.33-.56-6.23-1.06-9-3.64-14.88s-6.42-6.45-8.86-6.48a89.74,89.74,0,0,0-18.5,1.55,70.21,70.21,0,0,0-7.66,2c-8.91,3.55-8.33,9.46-14.15,23.22-2.83,6.69-11.95,12.13-14.76,18.26C163.52,234.44,179.38,242.16,190.23,242.16Z" style="fill:#455a64"></path><path d="M216,216.75c-6.12,2.16-15.44,1-18-6.85C197.51,216.68,206.67,222.79,216,216.75Z" style="fill:#37474f"></path><g id="freepik--Head--inject-2"><path d="M242,156.62a6.52,6.52,0,0,0,.38-1,3.81,3.81,0,0,0-1.58-4.11c-1.4-.9-3.38-.85-4.46-2.11a9,9,0,0,1-1.17-2.67,6.3,6.3,0,0,0-6.89-3.69c-1.32.28-2.6,1-3.93.76s-2.07-1.19-3.18-1.66a7.24,7.24,0,0,0-5.94.17A6.85,6.85,0,0,0,211.6,147a5.15,5.15,0,0,0-3.64.78c-1.47,1-1.94,2.9-2.61,4.53a6.11,6.11,0,0,1-2.11,2.84c-1,.66-2,.67-3,1.61a4.28,4.28,0,0,0-1.51,3.18c.08,1.17.9,2.13,1.44,3.17s.7,2.53-.26,3.21-2.15.13-3.13-.4a2.75,2.75,0,0,0,1.26,2.67,7.41,7.41,0,0,0,2.92,1,4.39,4.39,0,0,0,1,4c1.39,1.36,3.26.71,4.52,2.19a14.52,14.52,0,0,0,1.34,1.68,5.18,5.18,0,0,0,4,.79,13.08,13.08,0,0,1,3.24-.24c1,.14,1.13.84,1.79,1.55a5.35,5.35,0,0,0,5,1.26,12.17,12.17,0,0,1,3.2-.53,15.36,15.36,0,0,1,3.37,1.13,7,7,0,0,0,5.77-.71,3.62,3.62,0,0,0,1.69-2.07c.14-.41.55-2.93,0-3.15a3.14,3.14,0,0,1,1.83,2,3.18,3.18,0,0,0,.17-2.82,5.15,5.15,0,0,0-1.86-2.22,15.44,15.44,0,0,1-1.48-1.07,2.2,2.2,0,0,1-.79-1.57,2.06,2.06,0,0,1,.87-1.53c1.34-1,3.23-1,4.37-2.33a4.44,4.44,0,0,0,1-3.58,2.89,2.89,0,0,0,4.24-2.11,2.14,2.14,0,0,1-2.82-1.72A4.16,4.16,0,0,1,242,156.62Z" style="fill:#263238"></path><path d="M236.25,163.08c0,1.09-.83,2.62-1.07,3.69-.47,2.13-.21,3.59-1.05,6.57-2,7.24-6.43,8.59-8.69,9-1.4.23-2.56.12-5.26-.86l-1.6,4.49s2,7.61.13,11.68c-10.65-7.25-14.06-15.6-14.06-15.6l4.09-10.46s-3,1.17-4.84-2.3c-1.42-2.69-.45-6.92,2.06-7.93s4.72.29,5.07,3.49c.24,2.28,2.24,1.17,2.55-1.12s1.16-1.45,2.35-2.2c3-1.87,1.32-4.72,4.12-6.58a5.94,5.94,0,0,1,7.78,1.72C230.43,155.06,236.51,155.37,236.25,163.08Z" style="fill:#ffa8a7"></path><path d="M221.7,172.1l3.39,2.37a2,2,0,0,1-2.84.65A2.25,2.25,0,0,1,221.7,172.1Z" style="fill:#b16668"></path><path d="M221.47,172.59a2.22,2.22,0,0,0,.78,2.53,2,2,0,0,0,.32.17c0-.09.07-.18.1-.28A2.09,2.09,0,0,0,221.47,172.59Z" style="fill:#f28f8f"></path><polygon points="226.35 163.61 226.27 172.13 230.88 170.94 226.35 163.61" style="fill:#f28f8f"></polygon><path d="M220.18,181.45c-5.23-2.2-9-6.14-9.36-9.78a7,7,0,0,0,1.16,6c2.4,3.45,7.6,5.52,7.6,5.52Z" style="fill:#f28f8f"></path><path d="M224,161.59l-3.2.7a1.72,1.72,0,0,1,1.3-2A1.6,1.6,0,0,1,224,161.59Z" style="fill:#263238"></path><path d="M233.93,163.67l-2.53-2.11a1.57,1.57,0,0,1,2.28-.27A1.74,1.74,0,0,1,233.93,163.67Z" style="fill:#263238"></path><path d="M233.13,166.39a1.33,1.33,0,1,1-1.58-1A1.32,1.32,0,0,1,233.13,166.39Z" style="fill:#263238"></path><path d="M224.25,165.53c0,.28-.67-.46-1.58-.58-1.16-.15-2.13.75-1.82.08a1.66,1.66,0,0,1,1.93-.95A1.55,1.55,0,0,1,224.25,165.53Z" style="fill:#263238"></path></g><path d="M193.93,184.57c-6.51,1.11-12.93,8.55-11.89,18.37.84,7.85,6.46,28.77,8.07,32.63,2.12,5.09,3.4,5.55,9.53,7s26.69,7,26.69,7l5.26-11-26.9-10-4.41-29.1S196.09,186.83,193.93,184.57Z" style="fill:#ffa8a7"></path><path d="M194,183.83a16.55,16.55,0,0,0-9.48,6.11c-2.3,2.87-3.66,6.44-2.88,13.43s6.91,29.53,6.91,29.53,9.76.58,16.19-6.25L201,201.15S197.84,187.76,194,183.83Z" style="fill:#407BFF"></path><path d="M228.56,237.15c1.89.46,4-.21,5.91-.18a28.37,28.37,0,0,1,4.92.73c1.71.33,3.4.71,5.1,1,.43.08.48.52.4.9a2.5,2.5,0,0,1-1.39,1.58,5.47,5.47,0,0,1-2.12.44,13.94,13.94,0,0,1-1.94,0c-.68-.06-2.29-.2-2.22.84Z" style="fill:#ffa8a7"></path><path d="M228.56,237.15a10.37,10.37,0,0,0,4,.16,18.65,18.65,0,0,1,2-.08,16.25,16.25,0,0,1,2,.21c1.31.21,2.64.49,4,.7s2.65.44,4,.59c-1.29-.38-2.6-.7-3.91-1s-2.61-.6-4-.83a13.81,13.81,0,0,0-2-.18,11.38,11.38,0,0,0-2,.18c-.67.1-1.33.21-2,.27A7.88,7.88,0,0,1,228.56,237.15Z" style="fill:#f28f8f"></path><path d="M221.66,234.89s4.29,1.62,6.9,2.26l8.66,5.32c0,.75,1.14,1.68,1.62,2.2,2.66,2.92,7.15,3.17,9.17,4s2,1.7,1.26,2.35-4.67.36-6.58-.07a36.3,36.3,0,0,1-4.45-1.43s2.19,2.71,4.51,3.52,4.89.55,5.86,2.05c.57.88-.72,1.23-1.34,1.36a15.91,15.91,0,0,1-1.72.08,1.15,1.15,0,0,1-.3,1.07,2.55,2.55,0,0,1-1,.39,10.85,10.85,0,0,1-5-.77c1,.64,1.67.8,2.08,1.39a1,1,0,0,1,0,1.1c-.28.38-1.09.17-1.55.06a18.53,18.53,0,0,1-6.89-2.88,16.92,16.92,0,0,1-2.56-2.23c-.63-.63-1-1.75-1.86-2.75a8.94,8.94,0,0,0-3.4-2.66c-3-.93-6.61-1.78-6.61-1.78S216.68,240.39,221.66,234.89Z" style="fill:#ffa8a7"></path><path d="M245.55,256.55a32.23,32.23,0,0,1-5.88-1.47,11.77,11.77,0,0,1-2.57-1.56l-2.47-1.79a26,26,0,0,0,2.27,2.06,10.14,10.14,0,0,0,2.62,1.64A19.25,19.25,0,0,0,245.55,256.55Z" style="fill:#f28f8f"></path><path d="M239.26,257.24a20.21,20.21,0,0,1-2.76-1.59c-.9-.57-1.72-1.24-2.63-1.83a12,12,0,0,0,2.4,2.16A8.06,8.06,0,0,0,239.26,257.24Z" style="fill:#f28f8f"></path></g></g></g><g id="freepik--Telescope--inject-2"><g id="freepik--telescope--inject-2"><g id="freepik--telescope--inject-2"><g id="freepik--Tripod--inject-2"><path d="M279.11,227.67l-1.93-3.33,8.16-4.71h0a.94.94,0,0,1,1,.09,3,3,0,0,1,1.36,2.35,1,1,0,0,1-.38.87h0Z" style="fill:#455a64"></path><path d="M279.51,226.79c0,.86-.61,1.22-1.36.78a3,3,0,0,1-1.36-2.35c0-.87.61-1.22,1.36-.79A3,3,0,0,1,279.51,226.79Z" style="fill:#37474f"></path><path d="M277.78,225.56l-6.4,3.67.57,1,6.4-3.67a.28.28,0,0,0,.12-.26.88.88,0,0,0-.41-.7A.27.27,0,0,0,277.78,225.56Z" style="fill:#263238"></path><path d="M270.46,233.67a1,1,0,0,0-.44-.81,1.85,1.85,0,0,0-2.13,0,1,1,0,0,0-.44.81l34.9,126.21h0a.72.72,0,0,0,.31.56,1.31,1.31,0,0,0,1.51,0,.75.75,0,0,0,.31-.56h0ZM222.35,359.88h0a.75.75,0,0,0,.31.56,1.31,1.31,0,0,0,1.51,0,.75.75,0,0,0,.31-.56h0l34.9-126.21a1,1,0,0,0-.45-.81,1.85,1.85,0,0,0-2.13,0,1,1,0,0,0-.44.81Zm42.23-126.09a2,2,0,0,0-2.34,0,1.14,1.14,0,0,0-.48.89l.48,148.72h0a.78.78,0,0,0,.34.62,1.46,1.46,0,0,0,1.65,0,.81.81,0,0,0,.34-.62h0l.49-148.72A1.12,1.12,0,0,0,264.58,233.79Z"></path><path d="M274,231.23a7.17,7.17,0,0,0-2.67-2.47,17.48,17.48,0,0,0-15.78,0,7.21,7.21,0,0,0-2.66,2.47h-.61v2.44h0c.08,1.59,1.17,3.16,3.26,4.37a17.41,17.41,0,0,0,15.78,0c2.1-1.21,3.19-2.78,3.27-4.37h0v-2.44Z" style="fill:#407BFF"></path><g style="opacity:0.25"><path d="M274,231.23a7.17,7.17,0,0,0-2.67-2.47,17.48,17.48,0,0,0-15.78,0,7.21,7.21,0,0,0-2.66,2.47h-.61v2.44h0c.08,1.59,1.17,3.16,3.26,4.37a17.41,17.41,0,0,0,15.78,0c2.1-1.21,3.19-2.78,3.27-4.37h0v-2.44Z"></path></g><path d="M271.3,226.67a17.48,17.48,0,0,0-15.78,0c-4.36,2.52-4.36,6.6,0,9.11a17.41,17.41,0,0,0,15.78,0C275.66,233.27,275.66,229.19,271.3,226.67Z" style="fill:#407BFF"></path><path d="M268.25,220.43a2.42,2.42,0,0,0-1.42-2,7.54,7.54,0,0,0-6.83,0,2.4,2.4,0,0,0-1.42,2v10.1a2.39,2.39,0,0,0,1.42,2,7.54,7.54,0,0,0,6.83,0,2.41,2.41,0,0,0,1.42-2Z" style="fill:#e0e0e0"></path><path d="M260,218.46a2.08,2.08,0,0,0,0,3.95,7.54,7.54,0,0,0,6.83,0,2.08,2.08,0,0,0,0-3.95A7.54,7.54,0,0,0,260,218.46Z" style="fill:#455a64"></path><path d="M272.26,219.6,270.77,217l6.31-3.64h0a.74.74,0,0,1,.76.07,2.32,2.32,0,0,1,1.05,1.82.74.74,0,0,1-.29.67h0Z" style="fill:#407BFF"></path><path d="M272.57,218.92c0,.67-.47,1-1.05.61a2.34,2.34,0,0,1-1.06-1.82c0-.68.48-1,1.06-.61A2.32,2.32,0,0,1,272.57,218.92Z" style="fill:#407BFF"></path><path d="M272.57,218.92c0,.67-.47,1-1.05.61a2.34,2.34,0,0,1-1.06-1.82c0-.68.48-1,1.06-.61A2.32,2.32,0,0,1,272.57,218.92Z" style="opacity:0.2"></path><path d="M271.23,218l-5,2.84.44.78,4.95-2.85a.21.21,0,0,0,.1-.2.69.69,0,0,0-.32-.55A.22.22,0,0,0,271.23,218Z" style="fill:#263238"></path><path d="M268.37,220.47a3.45,3.45,0,0,0-1.25-1.16,8.2,8.2,0,0,0-7.41,0,3.45,3.45,0,0,0-1.25,1.16h-.28v1.15h0a2.68,2.68,0,0,0,1.53,2,8.2,8.2,0,0,0,7.41,0,2.68,2.68,0,0,0,1.53-2h0v-1.15Z" style="fill:#37474f"></path><path d="M267.12,218.33a8.2,8.2,0,0,0-7.41,0c-2,1.18-2,3.1,0,4.28a8.2,8.2,0,0,0,7.41,0C269.16,221.43,269.16,219.51,267.12,218.33Z" style="fill:#455a64"></path><path d="M265.73,213.1a1.15,1.15,0,0,0-.68-.94,3.56,3.56,0,0,0-3.27,0,1.15,1.15,0,0,0-.68.94v7.48a1.15,1.15,0,0,0,.68.94,3.62,3.62,0,0,0,3.27,0,1.15,1.15,0,0,0,.68-.94Z" style="fill:#e0e0e0"></path><path d="M261.78,212.16a1,1,0,0,0,0,1.88,3.56,3.56,0,0,0,3.27,0,1,1,0,0,0,0-1.88A3.56,3.56,0,0,0,261.78,212.16Z" style="fill:#455a64"></path></g><g id="freepik--telescope--inject-2"><g id="freepik--Lens--inject-2"><path d="M228.33,206.86a4.81,4.81,0,0,0-3.18,3,8.32,8.32,0,0,0,3.16,9.43,5.44,5.44,0,0,0,4.41.89c.46-.12,51-12,51.39-12.15,1.39-.39,2.12-3.79,2.74-5.4a8.3,8.3,0,0,0-3.17-9.42c-1.48-1-4.05-3.47-5.43-3.1C277.8,190.26,228.76,206.74,228.33,206.86Z" style="fill:#263238"></path></g><path d="M231.21,208v0a1.62,1.62,0,0,1-.52.95,2.42,2.42,0,0,1-2.47.52.83.83,0,0,1-.51-.71l0-7.2h3.49Z" style="fill:#455a64"></path><path d="M230.91,204a1.27,1.27,0,0,0,.56-.54h0v0h0l.14-.33h0v0l0,0-.06.09a1.46,1.46,0,0,1-.49.41l-.35.16a3.59,3.59,0,0,1-2.86-.2,1.68,1.68,0,0,1-.48-.42l0,0,0,0h0l0-.07v0l.14.34h0a.36.36,0,0,0,0,.09,1.36,1.36,0,0,0,.5.48,3.35,3.35,0,0,0,2.74.15l.11,0h0Z" style="fill:#263238"></path><path d="M231.13,202.36a1,1,0,0,0,0-2,3.78,3.78,0,0,0-3.39-.05,1,1,0,0,0,0,2A3.74,3.74,0,0,0,231.13,202.36Z" style="fill:#407BFF"></path><path d="M231.12,203.74a1.81,1.81,0,0,0,.42-.33,2,2,0,0,0,.2-.28l.06-.15s0,0,0-.07a.62.62,0,0,0,0-.13h0v0h0v-1.29h0v0s0,.06,0,.09l0,.1a1.4,1.4,0,0,1-.66.69l-.31.14a3.78,3.78,0,0,1-3.09-.19,1.35,1.35,0,0,1-.6-.61l0-.06h0a.14.14,0,0,1,0-.06.19.19,0,0,1,0-.07.11.11,0,0,1,0-.05s0,0,0,0v1.27h0v.06a1.21,1.21,0,0,0,.69,1,3.83,3.83,0,0,0,3,.24l.14-.05Z" style="fill:#fafafa"></path><path d="M227.86,199.13a3.56,3.56,0,0,1,3.21,0,1.43,1.43,0,0,1,.54.52.84.84,0,0,1,.12.42h0v1.12a.77.77,0,0,1,0,.15,1.28,1.28,0,0,1-.66.76,3.56,3.56,0,0,1-3.21,0,1.24,1.24,0,0,1-.64-.77.61.61,0,0,1,0-.14h0v-1.12h0A1.13,1.13,0,0,1,227.86,199.13Z" style="fill:#ebebeb"></path><path d="M227,200.41a1.22,1.22,0,0,0,.69,1,3.77,3.77,0,0,0,3.4,0,1.19,1.19,0,0,0,.71-.95c0-.11,0-.87,0-1a1.16,1.16,0,0,0-.69-1,3.74,3.74,0,0,0-3.4-.05,1.21,1.21,0,0,0-.71,1C227,199.54,227,200.3,227,200.41Z" style="fill:#fafafa"></path><path d="M231.12,203.74a1.81,1.81,0,0,0,.42-.33,2,2,0,0,0,.2-.28l.06-.15s0,0,0-.07a.62.62,0,0,0,0-.13h0v0h0v-1.29h0v0s0,.06,0,.09l0,.1a1.4,1.4,0,0,1-.66.69l-.31.14a3.78,3.78,0,0,1-3.09-.19,1.35,1.35,0,0,1-.6-.61l0-.06h0a.14.14,0,0,1,0-.06.19.19,0,0,1,0-.07.11.11,0,0,1,0-.05s0,0,0,0v1.27h0v.06a1.21,1.21,0,0,0,.69,1,3.83,3.83,0,0,0,3,.24l.14-.05Z" style="fill:#407BFF"></path><path d="M231.12,203.74a1.81,1.81,0,0,0,.42-.33,2,2,0,0,0,.2-.28l.06-.15s0,0,0-.07a.62.62,0,0,0,0-.13h0v0h0v-1.29h0v0s0,.06,0,.09l0,.1a1.4,1.4,0,0,1-.66.69l-.31.14a3.78,3.78,0,0,1-3.09-.19,1.35,1.35,0,0,1-.6-.61l0-.06h0a.14.14,0,0,1,0-.06.19.19,0,0,1,0-.07.11.11,0,0,1,0-.05s0,0,0,0v1.27h0v.06a1.21,1.21,0,0,0,.69,1,3.83,3.83,0,0,0,3,.24l.14-.05Z" style="fill:#fff;opacity:0.25"></path><path d="M227.86,199.13a3.56,3.56,0,0,1,3.21,0,1.43,1.43,0,0,1,.54.52.84.84,0,0,1,.12.42h0v1.12a.77.77,0,0,1,0,.15,1.28,1.28,0,0,1-.66.76,3.56,3.56,0,0,1-3.21,0,1.24,1.24,0,0,1-.64-.77.61.61,0,0,1,0-.14h0v-1.12h0A1.13,1.13,0,0,1,227.86,199.13Z" style="fill:#407BFF"></path><path d="M227.86,199.13a3.56,3.56,0,0,1,3.21,0,1.43,1.43,0,0,1,.54.52.84.84,0,0,1,.12.42h0v1.12a.77.77,0,0,1,0,.15,1.28,1.28,0,0,1-.66.76,3.56,3.56,0,0,1-3.21,0,1.24,1.24,0,0,1-.64-.77.61.61,0,0,1,0-.14h0v-1.12h0A1.13,1.13,0,0,1,227.86,199.13Z" style="fill:#fff;opacity:0.15"></path><path d="M227,200.41a1.22,1.22,0,0,0,.69,1,3.77,3.77,0,0,0,3.4,0,1.19,1.19,0,0,0,.71-.95c0-.11,0-3.27,0-3.38a1.19,1.19,0,0,0-.68-1,3.77,3.77,0,0,0-3.4,0,1.19,1.19,0,0,0-.72,1C227,197.14,227,200.3,227,200.41Z" style="fill:#407BFF"></path><path d="M227,200.41a1.22,1.22,0,0,0,.69,1,3.77,3.77,0,0,0,3.4,0,1.19,1.19,0,0,0,.71-.95c0-.11,0-3.27,0-3.38a1.19,1.19,0,0,0-.68-1,3.77,3.77,0,0,0-3.4,0,1.19,1.19,0,0,0-.72,1C227,197.14,227,200.3,227,200.41Z" style="fill:#fff;opacity:0.25"></path><path d="M231.1,198.08a1,1,0,0,0,0-2,3.77,3.77,0,0,0-3.4,0,1,1,0,0,0,0,2A3.8,3.8,0,0,0,231.1,198.08Z" style="fill:#407BFF"></path><path d="M231.48,196.81c.25.44-.25.78-.48.91a3.61,3.61,0,0,1-3.22-.05,1.27,1.27,0,0,1-.46-.42c-.25-.45.25-.79.48-.91a3.58,3.58,0,0,1,3.22,0,1.21,1.21,0,0,1,.46.43Z" style="opacity:0.2"></path><path d="M227.79,196.8a1.34,1.34,0,0,0-.47.43v0a1.27,1.27,0,0,0,.46.42,3.61,3.61,0,0,0,3.22.05,1.28,1.28,0,0,0,.48-.43v0a1.25,1.25,0,0,0-.45-.43A3.67,3.67,0,0,0,227.79,196.8Z" style="fill:#407BFF"></path><path d="M227.79,196.8a1.34,1.34,0,0,0-.47.43v0a1.27,1.27,0,0,0,.46.42,3.61,3.61,0,0,0,3.22.05,1.28,1.28,0,0,0,.48-.43v0a1.25,1.25,0,0,0-.45-.43A3.67,3.67,0,0,0,227.79,196.8Z" style="fill:#fff;opacity:0.6000000000000001"></path><path d="M227.82,197.69a3.62,3.62,0,0,0,3.18,0h0a.72.72,0,0,0-.45-.74,2.5,2.5,0,0,0-2.26,0C227.92,197.15,227.77,197.42,227.82,197.69Z" style="fill:#407BFF;opacity:0.1"></path><path d="M228.62,198a4.05,4.05,0,0,0,1.59,0c.33-.23.31-.57-.06-.8a1.63,1.63,0,0,0-1.46,0C228.3,197.4,228.28,197.75,228.62,198Z" style="fill:#407BFF;opacity:0.2"></path><path d="M228.42,197.7c-.57-.09-.86-.44-.77-.59a3.08,3.08,0,0,1,3-.26,4.4,4.4,0,0,0-2,0C227.8,197.06,227.91,197.53,228.42,197.7Z" style="fill:#fff;opacity:0.6000000000000001"></path><path d="M254.85,197.77h0a.59.59,0,0,0,0-1l-5.47-3.62a1.22,1.22,0,0,0-1.36.12h0a.58.58,0,0,0,0,1l5.47,3.63A1.22,1.22,0,0,0,254.85,197.77Z" style="fill:#263238"></path><g id="freepik--lens--inject-2"><path d="M239.38,194a1.55,1.55,0,0,0-.91,1.12,2.74,2.74,0,0,0,1.43,2.93,1.81,1.81,0,0,0,1.48.1c.14-.06,15.27-5.75,15.4-5.81.44-.19.53-1.32.66-1.87a2.72,2.72,0,0,0-1.43-2.93c-.52-.26-1.47-1-1.9-.78Z" style="fill:#fafafa"></path><path d="M254.87,192.21a2.16,2.16,0,0,0,3.23-1.39,3.65,3.65,0,0,0-1.92-3.93,2.16,2.16,0,0,0-3.23,1.38A3.67,3.67,0,0,0,254.87,192.21Z" style="fill:#e0e0e0"></path></g><path d="M254.2,192.52a2.67,2.67,0,0,0,1.48.31h.12l.76-.08h-.38a3.16,3.16,0,0,1-1.18-.34,3.25,3.25,0,0,1-.55-.36,4.15,4.15,0,0,1-1.44-4.31,3.05,3.05,0,0,1,.55-1.06l.06-.06,0,0h0l.11-.11,0,0-.62.51h0a.75.75,0,0,0-.16.15,2.53,2.53,0,0,0-.67,1.15,3.82,3.82,0,0,0,1.47,4.08l.17.11h0Z" style="fill:#263238"></path><path d="M259.05,183.64a2.84,2.84,0,0,0-1.57,1.92,4.37,4.37,0,0,0,2.21,4.89,2.91,2.91,0,0,0,2.44.11c.25-.1,1.8-.84,2-.94a2.84,2.84,0,0,0,1.57-1.92,4.37,4.37,0,0,0-2.21-4.89,2.92,2.92,0,0,0-2.46-.11Z" style="fill:#fafafa"></path><path d="M255,192.61a3.66,3.66,0,0,0,1,.3,6,6,0,0,0,.72,0l.34,0,.16-.05.28-.1h0l0,0h0l2.7-1.22-.06,0h0l-.08,0-.18,0-.24.06a3,3,0,0,1-1.86-.3,3.1,3.1,0,0,1-.5-.29,4.38,4.38,0,0,1-1.72-4.59,3.08,3.08,0,0,1,.84-1.44,1.27,1.27,0,0,0,.12-.1h0l.12-.09.13-.09.1-.06.1,0,.09-.05-2.71,1.21h0l-.12.05a2.87,2.87,0,0,0-1.5,1.89,4.39,4.39,0,0,0,1.52,4.45l.2.15A4.85,4.85,0,0,0,255,192.61Z" style="fill:#407BFF"></path><path d="M255,192.61a3.66,3.66,0,0,0,1,.3,6,6,0,0,0,.72,0l.34,0,.16-.05.28-.1h0l0,0h0l2.7-1.22-.06,0h0l-.08,0-.18,0-.24.06a3,3,0,0,1-1.86-.3,3.1,3.1,0,0,1-.5-.29,4.38,4.38,0,0,1-1.72-4.59,3.08,3.08,0,0,1,.84-1.44,1.27,1.27,0,0,0,.12-.1h0l.12-.09.13-.09.1-.06.1,0,.09-.05-2.71,1.21h0l-.12.05a2.87,2.87,0,0,0-1.5,1.89,4.39,4.39,0,0,0,1.52,4.45l.2.15A4.85,4.85,0,0,0,255,192.61Z" style="fill:#fff;opacity:0.25"></path><path d="M259.65,184.64a2.77,2.77,0,0,0-4,1.81,4.37,4.37,0,0,0,2.21,4.89,2.78,2.78,0,0,0,4.06-1.82A4.37,4.37,0,0,0,259.65,184.64Z" style="fill:#407BFF"></path><path d="M262.24,183.62a4.13,4.13,0,0,1,2.1,4.62,2.82,2.82,0,0,1-.7,1.26,2.67,2.67,0,0,1-.78.56h0l-2.26,1-.05,0c-.11,0-.23.08-.34.12a2.82,2.82,0,0,1-2-.23,4.13,4.13,0,0,1-2.1-4.62,2.77,2.77,0,0,1,1.15-1.63l.28-.16h0l.11-.05,2.21-1h0A2.71,2.71,0,0,1,262.24,183.62Z" style="fill:#407BFF"></path><path d="M262.24,183.62a4.13,4.13,0,0,1,2.1,4.62,2.82,2.82,0,0,1-.7,1.26,2.67,2.67,0,0,1-.78.56h0l-2.26,1-.05,0c-.11,0-.23.08-.34.12a2.82,2.82,0,0,1-2-.23,4.13,4.13,0,0,1-2.1-4.62,2.77,2.77,0,0,1,1.15-1.63l.28-.16h0l.11-.05,2.21-1h0A2.71,2.71,0,0,1,262.24,183.62Z" style="fill:#fff;opacity:0.15"></path><path d="M258.94,183.23a3.16,3.16,0,0,0-1.81,2,4.79,4.79,0,0,0,2.2,5.46A3.22,3.22,0,0,0,262,191l2.26-.94a3.15,3.15,0,0,0,1.82-2,4.79,4.79,0,0,0-2.2-5.46,3.19,3.19,0,0,0-2.69-.24Z" style="fill:#407BFF"></path><path d="M258.94,183.23a3.16,3.16,0,0,0-1.81,2,4.79,4.79,0,0,0,2.2,5.46A3.22,3.22,0,0,0,262,191l2.26-.94a3.15,3.15,0,0,0,1.82-2,4.79,4.79,0,0,0-2.2-5.46,3.19,3.19,0,0,0-2.69-.24Z" style="fill:#fff;opacity:0.25"></path><path d="M264.61,189.86l-.05,0a4.59,4.59,0,0,0-1.65-.51,6.79,6.79,0,0,0-.9,0c-.19,0-.63.11-.78,0-.64.33-1.34.6-2,.91L259,190l-1.38.62-.34.39s0,0,0,0l-1.53.7-1.24.56h0a4.85,4.85,0,0,0,.49.29,3.66,3.66,0,0,0,1,.3,6,6,0,0,0,.72,0l.34,0,.16-.05.28-.1h0l0,0h0l2.7-1.22-.06,0h0l-.08,0h0a2.57,2.57,0,0,0,.73-.39A3,3,0,0,0,262,191l2.2-.92A3,3,0,0,0,264.61,189.86Zm-4.69,1.71h0Z" style="opacity:0.1"></path><path d="M261.55,189.8a3,3,0,0,0,4.53-1.8,4.79,4.79,0,0,0-2.2-5.46,3,3,0,0,0-4.53,1.8A4.79,4.79,0,0,0,261.55,189.8Z" style="fill:#407BFF"></path><path d="M264.72,189.21a2.06,2.06,0,0,1-2.42.1,4.61,4.61,0,0,1-2.08-5.18,2.74,2.74,0,0,1,.67-1.13,2.06,2.06,0,0,1,2.42-.1,4.61,4.61,0,0,1,2.08,5.18,2.64,2.64,0,0,1-.67,1.13Z" style="opacity:0.2"></path><path d="M262.24,183.33a2.71,2.71,0,0,0-1.32-.35l0,0a2.74,2.74,0,0,0-.67,1.13,4.61,4.61,0,0,0,2.08,5.18,2.89,2.89,0,0,0,1.32.36l0,0a2.64,2.64,0,0,0,.67-1.13A4.61,4.61,0,0,0,262.24,183.33Z" style="fill:#407BFF"></path><path d="M262.24,183.33a2.71,2.71,0,0,0-1.32-.35l0,0a2.74,2.74,0,0,0-.67,1.13,4.61,4.61,0,0,0,2.08,5.18,2.89,2.89,0,0,0,1.32.36l0,0a2.64,2.64,0,0,0,.67-1.13A4.61,4.61,0,0,0,262.24,183.33Z" style="fill:#fff;opacity:0.6000000000000001"></path><path d="M260.2,184.21a4.63,4.63,0,0,0,2.1,5.1h0a2.06,2.06,0,0,0,1.4-1.42,3.2,3.2,0,0,0-1.47-3.64A2.09,2.09,0,0,0,260.2,184.21Z" style="fill:#407BFF;opacity:0.1"></path><path d="M260.06,185.76a4.9,4.9,0,0,0,1.06,2.55,1.3,1.3,0,0,0,1.79-.85,2.08,2.08,0,0,0-1-2.35A1.31,1.31,0,0,0,260.06,185.76Z" style="fill:#407BFF;opacity:0.2"></path><path d="M260.59,185.18c-.18-1,.44-1.78.84-1.79a4.12,4.12,0,0,1,2.62,4.5,5.39,5.39,0,0,0-1.28-3.16C261.64,183.59,260.65,184.2,260.59,185.18Z" style="fill:#fff;opacity:0.6000000000000001"></path><path d="M247.38,190.1l-2.25,1.11c-1.15,1.41.19,4.41,2.16,4.74l2.76-1C247.78,195.12,246.05,191.61,247.38,190.1Z" style="fill:#455a64"></path><g id="freepik--lens--inject-2"><path d="M239.57,201.69a6.28,6.28,0,0,0-4.12,3.92c-1.61,4.14.23,9.59,4.1,12.19a7,7,0,0,0,5.7,1.15c.6-.16,62.68-14.64,63.23-14.8,1.8-.5,2.74-4.9,3.55-7,1.61-4.14-.23-9.6-4.1-12.2-1.91-1.28-5.25-4.48-7-4C300.32,181.14,240.13,201.54,239.57,201.69Z" style="fill:#fafafa"></path><path d="M301.29,181.68c1.09,0,3.08,1.55,4.54,2.67.61.48,1.19.93,1.68,1.26,3.6,2.4,5.31,7.47,3.82,11.3-.19.49-.38,1.09-.59,1.73-.54,1.69-1.45,4.51-2.45,4.79l-35.88,8.4c-16.84,3.93-27.09,6.33-27.35,6.4a5.57,5.57,0,0,1-1.36.17,6.73,6.73,0,0,1-3.73-1.22c-3.59-2.41-5.31-7.48-3.82-11.3a5.52,5.52,0,0,1,3.62-3.47c.27-.07,11-3.7,28.5-9.62,15.15-5.13,32.32-10.94,32.82-11.09l.2,0m0-.75a1.6,1.6,0,0,0-.39,0c-.58.16-60.77,20.56-61.33,20.71a6.28,6.28,0,0,0-4.12,3.92c-1.61,4.14.23,9.59,4.1,12.19a7.53,7.53,0,0,0,4.15,1.35,6.1,6.1,0,0,0,1.55-.2c.6-.16,62.68-14.64,63.23-14.8,1.8-.5,2.74-4.9,3.55-7,1.61-4.14-.23-9.6-4.1-12.2-1.78-1.19-4.8-4-6.64-4Z" style="fill:#e0e0e0"></path><path d="M301.1,202.53c5.2,3.49,11.17,1.81,13.33-3.74s-.3-12.88-5.5-16.37-11.17-1.8-13.33,3.75S295.9,199.05,301.1,202.53Z" style="fill:#e0e0e0"></path></g><path d="M297.7,204a10.54,10.54,0,0,0,5.62,2h.48l3,.05h-.22l-.42,0c-.28,0-.58-.09-.86-.15a12,12,0,0,1-4.42-1.94,13.77,13.77,0,0,1-2-1.68c-4.41-4.5-5.95-11.87-3.35-17.61a11.51,11.51,0,0,1,2.73-3.84l.23-.22.22-.17s0,0,0,0l.47-.36.18-.13-2.71,1.69,0,0c-.25.15-.49.32-.72.49a10.73,10.73,0,0,0-3.24,4.15,15.09,15.09,0,0,0,3.61,16.72c.19.18.39.35.59.52l.07.06C297.27,203.66,297.47,203.83,297.7,204Z" style="fill:#263238"></path><path d="M266.25,212a11.35,11.35,0,0,1-1.59-1.35,13.17,13.17,0,0,1-2.74-14.16,9.24,9.24,0,0,1,2.08-3l-8.7,2.95a8.57,8.57,0,0,0-2.47,3.23,12.13,12.13,0,0,0,3,13.45l.47.42s0,0,.06,0l.52.39a8.81,8.81,0,0,0,3.57,1.47l8.81-2.06A9.74,9.74,0,0,1,266.25,212Z" style="fill:#263238"></path><path d="M233.33,209.81a1.67,1.67,0,0,0-.9,1.43,5.29,5.29,0,0,0,1.82,4.4,1.69,1.69,0,0,0,1.65.39l1.62-.67a1.67,1.67,0,0,0,.89-1.44,5.25,5.25,0,0,0-1.82-4.4,1.66,1.66,0,0,0-1.64-.38Z" style="fill:#37474f"></path><path d="M234.25,215.64a1.45,1.45,0,0,0,2.54-1,5.25,5.25,0,0,0-1.82-4.4,1.45,1.45,0,0,0-2.54,1.05A5.29,5.29,0,0,0,234.25,215.64Z" style="fill:#455a64"></path><path d="M238.58,212a1.2,1.2,0,0,0-.64,1,3.75,3.75,0,0,0,1.29,3.12,1.17,1.17,0,0,0,1.17.27l1.15-.47a1.21,1.21,0,0,0,.63-1,3.75,3.75,0,0,0-1.29-3.12,1.19,1.19,0,0,0-1.17-.27Z" style="fill:#37474f"></path><path d="M239.23,216.12a1,1,0,0,0,1.8-.75,3.7,3.7,0,0,0-1.29-3.11,1.18,1.18,0,0,0-1.16-.28,1.2,1.2,0,0,0-.64,1A3.75,3.75,0,0,0,239.23,216.12Z" style="fill:#455a64"></path><path d="M322.43,172a11.35,11.35,0,0,0-7.33,6.48,17.25,17.25,0,0,0,5.55,20.43,11.42,11.42,0,0,0,9.42,2c1-.25,7.54-2.13,8.48-2.38a11.3,11.3,0,0,0,7.34-6.49,17.22,17.22,0,0,0-5.54-20.42,11.45,11.45,0,0,0-9.5-2C329.86,169.92,323.38,171.78,322.43,172Z" style="fill:#fafafa"></path><path d="M301,204.39a12,12,0,0,0,9.55,2.13l.47-.11,11.27-2.63h0c-15.95,2.54-22.47-23.62-8.42-30.06L303,177.42C291.36,180.47,291.75,198.39,301,204.39Z" style="fill:#407BFF"></path><path d="M301,204.39a12,12,0,0,0,9.55,2.13l.47-.11,11.27-2.63h0c-15.95,2.54-22.47-23.62-8.42-30.06L303,177.42C291.36,180.47,291.75,198.39,301,204.39Z" style="fill:#fff;opacity:0.25"></path><path d="M312.81,201.7c6.32,4.47,14,2.4,17.25-4.61a17.55,17.55,0,0,0-5.64-20.79c-6.34-4.48-13-4.87-17.32,4.57C303.9,187.88,306.5,197.23,312.81,201.7Z" style="fill:#407BFF"></path><path d="M334.89,174a16.28,16.28,0,0,1,5.23,19.31,11.55,11.55,0,0,1-3.51,4.48,9.93,9.93,0,0,1-3.38,1.65h0L323.78,202l-.24.07a10.61,10.61,0,0,1-1.37.24,11.07,11.07,0,0,1-7.61-2.14,16.28,16.28,0,0,1-5.24-19.31,11,11,0,0,1,5.5-5.63,8.86,8.86,0,0,1,1.18-.44l.07,0,.45-.12,9.25-2.53h0A10.78,10.78,0,0,1,334.89,174Z" style="fill:#407BFF"></path><path d="M334.89,174a16.28,16.28,0,0,1,5.23,19.31,11.55,11.55,0,0,1-3.51,4.48,9.93,9.93,0,0,1-3.38,1.65h0L323.78,202l-.24.07a10.61,10.61,0,0,1-1.37.24,11.07,11.07,0,0,1-7.61-2.14,16.28,16.28,0,0,1-5.24-19.31,11,11,0,0,1,5.5-5.63,8.86,8.86,0,0,1,1.18-.44l.07,0,.45-.12,9.25-2.53h0A10.78,10.78,0,0,1,334.89,174Z" style="fill:#fff;opacity:0.15"></path><path d="M346.32,176.05a16.5,16.5,0,0,0-4.38-5.24l-.39-.26c-3.67-2.72-7.53-3.53-10.95-2.45h-.1l-8.22,2.77a13.87,13.87,0,0,0-8.33,6.81,17.74,17.74,0,0,0,5.11,21.81,12.53,12.53,0,0,0,10.23,2.64c1-.21,7.28-1.71,9.07-2.12a12.29,12.29,0,0,0,8.59-6.77A18.75,18.75,0,0,0,346.32,176.05Z" style="fill:#407BFF"></path><path d="M346.32,176.05a16.5,16.5,0,0,0-4.38-5.24l-.39-.26c-3.67-2.72-7.53-3.53-10.95-2.45h-.1l-8.22,2.77a13.87,13.87,0,0,0-8.33,6.81,17.74,17.74,0,0,0,5.11,21.81,12.53,12.53,0,0,0,10.23,2.64c1-.21,7.28-1.71,9.07-2.12a12.29,12.29,0,0,0,8.59-6.77A18.75,18.75,0,0,0,346.32,176.05Z" style="fill:#fff;opacity:0.25"></path><path d="M227.32,218.49a6.07,6.07,0,0,0,1,.82,5.46,5.46,0,0,0,4.4.89l7.8-1.85a6.74,6.74,0,0,0,4.74.6c.21-.06,8.33-1.95,18.67-4.37l.26-.07,37.49-8.76a10.4,10.4,0,0,0,1.64.22H304a11.37,11.37,0,0,0,6.56.54l.46-.11,11.28-2.64h-.09a10.49,10.49,0,0,0,3.53-1.5,11.52,11.52,0,0,0,3.57-.15c1-.21,7.28-1.7,9.08-2.12a11.27,11.27,0,0,0,3.71-1.42l0,0a11.94,11.94,0,0,0,1-.71.36.36,0,0,1,.1-.07c.31-.25.61-.51.91-.79.05-.05.11-.09.16-.15a10.37,10.37,0,0,0,.77-.84l.21-.23c.23-.29.45-.6.67-.92.06-.09.14-.18.2-.28.27-.42.52-.87.76-1.33a12.94,12.94,0,0,0,.58-1.26l.14-.38c.12-.32.24-.65.34-1,0-.12.07-.23.11-.35.11-.43.22-.86.3-1.29,0-.14,0-.28.07-.42.06-.3.1-.61.14-.92,0-.12,0-.25,0-.38L315.5,195.8l-1.07-1.52-4.11,1.2-2.11,1.12.58.92-11.67,3Z" style="opacity:0.2"></path><path d="M328.32,197.37c6.54,5.07,14.88,3.22,18.63-4.12a18.76,18.76,0,0,0-5.07-22.47c-6.89-5.33-14.54-3.89-18.63,4.13C319.51,182.25,321.78,192.31,328.32,197.37Z" style="fill:#407BFF"></path><path d="M341,197.07c-3.81,2.61-7.85.09-9.41-1.12-6.09-4.72-8.29-14.47-4.81-21.31a10.67,10.67,0,0,1,3.3-3.94c3.81-2.61,7.85-.08,9.41,1.12,6.1,4.72,8.3,14.48,4.81,21.31a10.48,10.48,0,0,1-3.3,3.94Z" style="opacity:0.2"></path><path d="M335.05,172.81a10.78,10.78,0,0,0-4.88-2.2l-.13.09a10.67,10.67,0,0,0-3.3,3.94c-3.48,6.84-1.28,16.59,4.81,21.31a10.78,10.78,0,0,0,4.88,2.2l.13-.09a10.48,10.48,0,0,0,3.3-3.94C343.34,187.29,341.14,177.53,335.05,172.81Z" style="fill:#407BFF"></path><path d="M335.05,172.81a10.78,10.78,0,0,0-4.88-2.2l-.13.09a10.67,10.67,0,0,0-3.3,3.94c-3.48,6.84-1.28,16.59,4.81,21.31a10.78,10.78,0,0,0,4.88,2.2l.13-.09a10.48,10.48,0,0,0,3.3-3.94C343.34,187.29,341.14,177.53,335.05,172.81Z" style="fill:#fff;opacity:0.6000000000000001"></path><path d="M326.61,174.92c-3.29,6.82-1.07,16.38,4.94,21h0a8.11,8.11,0,0,0,6.28-4.61,12.49,12.49,0,0,0-3.38-15A8.11,8.11,0,0,0,326.61,174.92Z" style="fill:#407BFF;opacity:0.1"></path><path d="M325.13,180.83a19.06,19.06,0,0,0,2.46,10.5,5.08,5.08,0,0,0,7.45-2.16,8,8,0,0,0-2.18-9.65A5.09,5.09,0,0,0,325.13,180.83Z" style="fill:#407BFF;opacity:0.2"></path><path d="M327.53,178.91c-.07-3.93,2.81-6.6,4.35-6.38s10.7,7.23,7.29,19c0,0,.88-7.62-2.95-13C332.59,173.42,328.35,175.18,327.53,178.91Z" style="fill:#fff;opacity:0.6000000000000001"></path></g></g></g></g><g id="freepik--railing--inject-2"><g id="freepik--railing-1--inject-2"><g id="freepik--railing--inject-2"><polygon points="158.75 389.76 337.93 286.34 337.93 344.01 158.76 447.43 158.75 389.76" style="fill:#407BFF;opacity:0.2"></polygon><polygon points="160.5 389.76 43.26 322.04 43.26 379.7 160.5 447.43 160.5 389.76" style="fill:#407BFF;opacity:0.2"></polygon><path d="M159.72,379.7l-115-66.3a.59.59,0,0,0-.59.06,1.84,1.84,0,0,0-.83,1.44.58.58,0,0,0,.24.54l115.05,66.3Z" style="fill:#263238"></path><path d="M252.91,325.79l83.43-48.14a.59.59,0,0,1,.59.06,1.83,1.83,0,0,1,.83,1.44.58.58,0,0,1-.24.54l-83.43,48.14Z" style="fill:#263238"></path><path d="M254.19,317.67V396.9a.59.59,0,0,1-.35.48,1.86,1.86,0,0,1-1.66,0,.59.59,0,0,1-.35-.48V317.67Z" style="fill:#37474f"></path><path d="M159.54,379.7l92.56-53.44a.56.56,0,0,1,.59.06,1.83,1.83,0,0,1,.83,1.44.6.6,0,0,1-.24.54l-92.57,53.44Z" style="fill:#263238"></path><path d="M338.52,269v79.22a.6.6,0,0,1-.34.48,1.82,1.82,0,0,1-1.67,0,.58.58,0,0,1-.34-.48V269Z" style="fill:#37474f"></path><path d="M160.8,371.62v79.22a.59.59,0,0,1-.35.48,1.8,1.8,0,0,1-1.66,0,.59.59,0,0,1-.35-.48V371.62Z" style="fill:#37474f"></path><path d="M333.53,268.83,159.63,369.21,46,304.18h0a1,1,0,0,0-1,.08,4.54,4.54,0,0,0-1.72,3.64,2,2,0,0,0,.62,1.67l0,0L158.24,375a2.79,2.79,0,0,0,2.83,0L340.7,271.28a2.84,2.84,0,0,0,1.43-2.48" style="fill:#37474f"></path></g></g></g></svg>
